<svg width="32" height="32" viewBox="0 0 32 32" fill="none" xmlns="http://www.w3.org/2000/svg">
  <!-- Person figure -->
  <circle cx="10" cy="7" r="3" stroke="#37352f" stroke-width="1.5" fill="none"/>
  <path d="M10 12C7.5 12 5.5 13.5 5.5 16V22" stroke="#37352f" stroke-width="1.5" stroke-linecap="round"/>
  <path d="M10 12C12.5 12 14.5 13.5 14.5 16V22" stroke="#37352f" stroke-width="1.5" stroke-linecap="round"/>
  
  <!-- Speech bubble -->
  <path d="M16 6H28C28.5 6 29 6.5 29 7V14C29 14.5 28.5 15 28 15H20L16 18V6Z" stroke="#37352f" stroke-width="1.5" fill="none"/>
  
  <!-- Bar chart inside bubble -->
  <rect x="18" y="11" width="1.5" height="2" fill="#37352f"/>
  <rect x="20" y="9.5" width="1.5" height="3.5" fill="#37352f"/>
  <rect x="22" y="8" width="1.5" height="5" fill="#37352f"/>
  <rect x="24" y="10" width="1.5" height="3" fill="#37352f"/>
  <rect x="26" y="9" width="1.5" height="4" fill="#37352f"/>
</svg>
